<svg xmlns="http://www.w3.org/2000/svg" viewBox="0 0 45.21 45.21"><defs><style>.cls-1{fill:#f2f2f2;}.cls-2{fill:none;stroke:#f2f2f2;stroke-miterlimit:10;}</style></defs><title>Asset 3</title><g id="Layer_2" data-name="Layer 2"><g id="Layer_1-2" data-name="Layer 1"><path class="cls-1" d="M29.67,27a.35.35,0,0,1-.25-.1l-4.24-4a.37.37,0,0,1,0-.52.37.37,0,0,1,.52,0l4.23,4a.36.36,0,0,1,0,.51A.37.37,0,0,1,29.67,27Z"/><path class="cls-1" d="M15.54,27a.39.39,0,0,1-.27-.12.36.36,0,0,1,0-.51l4.23-4A.37.37,0,0,1,20,23l-4.24,4A.35.35,0,0,1,15.54,27Z"/><path class="cls-1" d="M32.17,30.71H13a1.84,1.84,0,0,1-1.84-1.84V16.34A1.84,1.84,0,0,1,13,14.5H32.17A1.84,1.84,0,0,1,34,16.34V28.87A1.84,1.84,0,0,1,32.17,30.71ZM13,15.23a1.11,1.11,0,0,0-1.1,1.11V28.87A1.11,1.11,0,0,0,13,30H32.17a1.11,1.11,0,0,0,1.1-1.11V16.34a1.11,1.11,0,0,0-1.1-1.11Z"/><path class="cls-1" d="M22.61,24.45A2.07,2.07,0,0,1,21.26,24l-9.45-8.24a.37.37,0,1,1,.49-.55l9.44,8.23a1.37,1.37,0,0,0,1.73,0l9.43-8.22a.37.37,0,0,1,.49.55L24,24A2.11,2.11,0,0,1,22.61,24.45Z"/><circle class="cls-2" cx="22.61" cy="22.61" r="22.11"/></g></g></svg>