<svg xmlns="http://www.w3.org/2000/svg" viewBox="0 0 44.75 43.66"><defs><style>.cls-1{fill:#f2f2f2;}</style></defs><title>Asset 4</title><g id="Layer_2" data-name="Layer 2"><g id="Layer_1-2" data-name="Layer 1"><path class="cls-1" d="M41.75,11.14A22.3,22.3,0,0,0,33.61,3,21.89,21.89,0,0,0,22.38,0,21.93,21.93,0,0,0,11.14,3,22.37,22.37,0,0,0,3,11.14,21.93,21.93,0,0,0,0,22.38,21.71,21.71,0,0,0,4.27,35.53a21.94,21.94,0,0,0,11,8.09,1.32,1.32,0,0,0,1.16-.21,1.14,1.14,0,0,0,.38-.87c0-.06,0-.58,0-1.58s0-1.85,0-2.59l-.67.12a8.43,8.43,0,0,1-1.62.1,13.15,13.15,0,0,1-2-.2,4.52,4.52,0,0,1-1.95-.88,3.66,3.66,0,0,1-1.29-1.79L9,35.05a7.46,7.46,0,0,0-.91-1.49,3.49,3.49,0,0,0-1.27-1.1l-.21-.15A2,2,0,0,1,6.21,32a1.45,1.45,0,0,1-.27-.41c-.05-.13,0-.24.15-.33a1.84,1.84,0,0,1,.84-.13l.59.08a4.42,4.42,0,0,1,1.44.7,4.78,4.78,0,0,1,1.41,1.52A5.17,5.17,0,0,0,12,35.21a3.42,3.42,0,0,0,1.91.63,8,8,0,0,0,1.66-.15,5.77,5.77,0,0,0,1.31-.44,4.69,4.69,0,0,1,1.43-3,19.46,19.46,0,0,1-3-.52,12,12,0,0,1-2.74-1.14,7.72,7.72,0,0,1-2.34-1.95A9.12,9.12,0,0,1,8.7,25.58a14.47,14.47,0,0,1-.6-4.37,8.51,8.51,0,0,1,2.3-6,7.82,7.82,0,0,1,.21-6,4.1,4.1,0,0,1,2.5.4,16.35,16.35,0,0,1,2.43,1.12c.52.31.93.57,1.24.79a21,21,0,0,1,11.19,0l1.11-.7a15.23,15.23,0,0,1,2.68-1.29,3.91,3.91,0,0,1,2.36-.32,7.79,7.79,0,0,1,.23,6,8.47,8.47,0,0,1,2.3,6,14.93,14.93,0,0,1-.59,4.38,8.94,8.94,0,0,1-1.55,3.06,8,8,0,0,1-2.36,1.94,11.84,11.84,0,0,1-2.74,1.14,19.53,19.53,0,0,1-3,.52,5.21,5.21,0,0,1,1.51,4.14v6.15a1.13,1.13,0,0,0,.37.87,1.26,1.26,0,0,0,1.15.2,21.88,21.88,0,0,0,11-8.08,21.72,21.72,0,0,0,4.27-13.16A21.92,21.92,0,0,0,41.75,11.14Z"/></g></g></svg>