<svg xmlns="http://www.w3.org/2000/svg" viewBox="0 0 45.21 45.21"><defs><style>.cls-1{fill:#f2f2f2;}.cls-2{fill:none;stroke:#f2f2f2;stroke-miterlimit:10;}</style></defs><title>Asset 2</title><g id="Layer_2" data-name="Layer 2"><g id="Layer_1-2" data-name="Layer 1"><path class="cls-1" d="M14.91,12.24a2.83,2.83,0,0,0-2.85,2.81,2.8,2.8,0,0,0,.85,2,2.63,2.63,0,0,0,2,.81h.07a2.64,2.64,0,0,0,1.9-.81,2.8,2.8,0,0,0,.85-2,2.82,2.82,0,0,0-2.78-2.81Zm1.44,4.32a2,2,0,0,1-1.48.6,2.13,2.13,0,0,1-1.47-.6,2.05,2.05,0,0,1-.63-1.51,2.1,2.1,0,0,1,.63-1.51,2.08,2.08,0,0,1,1.51-.6,2,2,0,0,1,1.44.6A2.1,2.1,0,0,1,17,15.05,2.05,2.05,0,0,1,16.35,16.56Z"/><path class="cls-1" d="M16.28,18.56H13.43a1,1,0,0,0-1,1.06v12.3a1.09,1.09,0,0,0,1.06,1h2.81a1.07,1.07,0,0,0,1-1V19.62A1.09,1.09,0,0,0,16.28,18.56ZM16.63,32a.34.34,0,0,1-.35.32H13.47a.38.38,0,0,1-.35-.35V19.62a.34.34,0,0,1,.31-.35h2.85a.37.37,0,0,1,.35.35Z"/><path class="cls-1" d="M28.23,18.21h-.74A4.73,4.73,0,0,0,24,19.76v-.49a.77.77,0,0,0-.71-.71H19.76a.72.72,0,0,0-.7.67V32.34a.68.68,0,0,0,.7.63h3.86a.69.69,0,0,0,.71-.63V24.75a2,2,0,0,1,1.93-2.07,2.11,2.11,0,0,1,1.48.59,1.86,1.86,0,0,1,.49,1.44v7.56a.75.75,0,0,0,.7.7h3.51a.75.75,0,0,0,.71-.7V23.2A4.89,4.89,0,0,0,28.23,18.21Zm4.21,14,0,0H29l0-7.56a2.58,2.58,0,0,0-.67-1.93,2.68,2.68,0,0,0-4.6,2v7.52H19.79v-13h3.48l0,0v2.22l1-.95,0,0a4,4,0,0,1,3.24-1.61h.73a4.18,4.18,0,0,1,4.18,4.28Z"/><circle class="cls-2" cx="22.61" cy="22.61" r="22.11"/></g></g></svg>