<svg xmlns="http://www.w3.org/2000/svg" xmlns:xlink="http://www.w3.org/1999/xlink" viewBox="0 0 152.71 133.18"><defs><style>.cls-1{opacity:0.44;}.cls-2{fill:url(#linear-gradient);}.cls-3{opacity:0.65;}.cls-4{fill:url(#linear-gradient-2);}.cls-5{fill:url(#linear-gradient-3);}.cls-6{font-size:56.39px;fill:#fafafa;font-family:Nunito-ExtraBold, Nunito;font-weight:800;}.cls-7{letter-spacing:-0.07em;}</style><linearGradient id="linear-gradient" x1="53.06" y1="113.46" x2="99.72" y2="32.65" gradientTransform="matrix(0.44, 1.12, -1.04, 0.52, 93.8, -43.15)" gradientUnits="userSpaceOnUse"><stop offset="0" stop-color="#007afc"/><stop offset="0.19" stop-color="#0768f2"/><stop offset="0.58" stop-color="#1739d7"/><stop offset="1" stop-color="#2c00b7"/></linearGradient><linearGradient id="linear-gradient-2" x1="53.73" y1="-28.38" x2="53.73" y2="64.48" gradientTransform="translate(77.75 6.71) rotate(96.67)" gradientUnits="userSpaceOnUse"><stop offset="0" stop-color="#7842b5"/><stop offset="0.41" stop-color="#713bae"/><stop offset="1" stop-color="#5d299a"/></linearGradient><linearGradient id="linear-gradient-3" x1="65.8" y1="111.77" x2="107.52" y2="39.51" gradientUnits="userSpaceOnUse"><stop offset="0" stop-color="#dcfff2"/><stop offset="1" stop-color="#4eeaef"/></linearGradient></defs><title>Asset 1</title><g id="Layer_2" data-name="Layer 2"><g id="Layer_1-2" data-name="Layer 1"><g class="cls-1"><path class="cls-2" d="M75,122c-5.19,7.73-13.22,13.94-19,9.86s-9.38-18.41-17.09-23.58-19.62-1-27.17-4.17S.78,90.7.11,78.58s1.32-26,9.52-26.3,22.58,13,36.15,9.13S72.05,36.54,84,32s23.15,7.24,23.15,20.66S96,81,89.2,93.06,80.11,114.33,75,122Z"/></g><g class="cls-3"><path class="cls-4" d="M79.84,104.37c-13.47,9.93-33.3,12.79-46.87,5.77S12.11,86.25,9.09,70.84,7.44,41.42,13.78,27.49,31.5-.31,42.53,0,64.24,14.75,75,27.19,96.72,50,98.6,63.72,93.33,94.44,79.84,104.37Z"/></g><path class="cls-5" d="M120.19,47.05c12.57,6.81,28,15,31.65,26.26s-4.55,25.59-17.15,31.53-29.51,3.54-45.23,2.54S59.2,106.71,47,100.77,24.71,82.53,24.08,69.7s8-26.23,20.26-33,28.05-7,40.81-4.38S107.59,40.26,120.19,47.05Z"/><text class="cls-6" transform="translate(70.04 92.14) scale(0.93 1)"><tspan class="cls-7">Y</tspan><tspan x="31.97" y="0">.</tspan></text></g></g></svg>