<svg id="Layer_1" data-name="Layer 1" xmlns="http://www.w3.org/2000/svg" xmlns:xlink="http://www.w3.org/1999/xlink" viewBox="0 0 1920 1080"><defs><style>.cls-1,.cls-18,.cls-19{fill:none;}.cls-2{clip-path:url(#clip-path);}.cls-3{fill:#3b0099;opacity:0.39;}.cls-4{opacity:0.82;fill:url(#linear-gradient);}.cls-5{opacity:0.75;fill:url(#linear-gradient-2);}.cls-6{opacity:0.71;fill:url(#linear-gradient-3);}.cls-13,.cls-7{opacity:0.29;}.cls-7{fill:url(#linear-gradient-4);}.cls-8{opacity:0.22;font-size:185.52px;fill:#a1ffed;font-family:Montserrat-Black, Montserrat;font-weight:800;letter-spacing:0em;}.cls-9{letter-spacing:0.01em;}.cls-10{letter-spacing:0.01em;}.cls-11{letter-spacing:0em;}.cls-12{letter-spacing:-0.03em;}.cls-13{fill:url(#linear-gradient-5);}.cls-14{fill:url(#linear-gradient-6);}.cls-15,.cls-16{fill:#3bffdb;}.cls-16{opacity:0.9;}.cls-17{fill:#00bfef;}.cls-18,.cls-19{stroke:#3bffdb;stroke-miterlimit:10;}.cls-18{stroke-width:2px;}.cls-19{stroke-width:1.54px;}</style><clipPath id="clip-path"><rect class="cls-1" width="1920" height="1080"/></clipPath><linearGradient id="linear-gradient" x1="-719.4" y1="-253.74" x2="210.25" y2="225.85" gradientTransform="matrix(0.87, -0.24, 0.31, 0.95, 598.41, 8.3)" gradientUnits="userSpaceOnUse"><stop offset="0" stop-color="#3bffdb"/><stop offset="0.11" stop-color="#39fddc" stop-opacity="0.98"/><stop offset="0.26" stop-color="#35f8dd" stop-opacity="0.92"/><stop offset="0.41" stop-color="#2df0e0" stop-opacity="0.83"/><stop offset="0.58" stop-color="#23e5e3" stop-opacity="0.7"/><stop offset="0.76" stop-color="#15d6e8" stop-opacity="0.54"/><stop offset="0.95" stop-color="#05c4ed" stop-opacity="0.34"/><stop offset="1" stop-color="#00bfef" stop-opacity="0.28"/></linearGradient><linearGradient id="linear-gradient-2" x1="1384.99" y1="1242.44" x2="3443.37" y2="1242.44" gradientTransform="matrix(0.84, 0.27, -0.3, 0.95, -119.3, -440.36)" gradientUnits="userSpaceOnUse"><stop offset="0" stop-color="#3bffdb"/><stop offset="1" stop-color="#3bffdb" stop-opacity="0.28"/></linearGradient><linearGradient id="linear-gradient-3" x1="-1294.72" y1="680.42" x2="54.23" y2="1108.78" gradientTransform="translate(292.62 220.32) rotate(-2.73)" xlink:href="#linear-gradient-2"/><linearGradient id="linear-gradient-4" x1="399.19" y1="-721.05" x2="878.69" y2="109.48" gradientTransform="matrix(1, 0, 0, 1, 0, 0)" xlink:href="#linear-gradient-2"/><linearGradient id="linear-gradient-5" x1="5.82" y1="522.86" x2="1757.67" y2="522.86" gradientTransform="matrix(0.93, -0.26, 0.32, 0.93, 584.11, 344.52)" gradientUnits="userSpaceOnUse"><stop offset="0" stop-color="#00bfef"/><stop offset="0.21" stop-color="#00bfef" stop-opacity="0.87"/><stop offset="0.65" stop-color="#00bfef" stop-opacity="0.55"/><stop offset="1" stop-color="#00bfef" stop-opacity="0.28"/></linearGradient><linearGradient id="linear-gradient-6" x1="1987.87" y1="141.87" x2="2673.64" y2="141.87" gradientTransform="matrix(-0.48, 0.79, -0.95, -0.4, 2469.82, -1347.98)" xlink:href="#linear-gradient"/></defs><title>Artboard 1</title><g class="cls-2"><ellipse class="cls-3" cx="351.5" cy="1130.16" rx="503.5" ry="503.84"/><path class="cls-4" d="M752.5-155.3C711.8-183.92,674-211,625-229.37c-111.32-41.79-302.73-64.44-494.41,22.49-116.13,52.66-187.79,130.2-232,205C-186.26,141.68-60,329,132.78,342.28c39.12,2.7,69.06-2.95,92.34-11.64,125.89-47,85.38-193.48,229-265.95C618-18,825.21,94.67,863.75,33.08,878.5,9.5,902.51-49.78,752.5-155.3Z"/><path class="cls-5" d="M1387.28,795.76C1166.18,848.22,1072,742.92,907,805.89,835.92,833,789.37,877,773,893.6c-54.78,55.58-73.77,112.85-90.43,158.55-35.31,96.89-39,196.08-16.12,280.13,43.17,158.15,181.72,232.61,336.26,184.15,366.84-115,488.37-98.22,503.58-34.63,32.68,136.61-433.81,453.69-409.49,704.82,12,123.78,139.5,193.11,247.28,171.84,183-36.1,355-342.4,413.88-566,39.72-150.91,20.83-237.39,69.5-274.32,86.43-65.59,183.75,178.59,367.13,132.35,141.72-35.73,299.56-236,288.22-340.78-17.41-161-425.51-15.76-495.05-255.52-24.56-84.66,22.63-113.53,8.47-261-19.9-207.37-159.71-399.1-245.43-382.22-88.19,17.36-64.23,244.65-254.59,347.75C1459.23,778.69,1429.53,785.74,1387.28,795.76Z"/><path class="cls-6" d="M-815.8,1688.21c81.27,24.38,157.07,47.79,246.18,51.62,202.72,8.71,524.86-54.44,788.64-291.72,159.8-143.75,234.24-304,265.71-445.63,60.4-271.92-244.56-504-563.94-425.25-64.8,16-110.25,40.45-143.3,66.3C-401.16,783.33-256.94,995-450.66,1184.41c-221,216.13-617,144.53-646.4,262.29C-1108.3,1491.77-1115.37,1598.33-815.8,1688.21Z"/><path class="cls-7" d="M436.3,4.92c-38.93,96.15,51,178.51,199.29,179.71a417,417,0,0,0,113.66-14.95C812.13,152.32,865.81,121.17,902.68,84c69.37-69.95,63-151.67-13.59-199.47C707.22-228.94,676-284.65,704.63-311.88c61.44-58.52,383,29.48,507.75-63.34,61.49-45.75,56.08-121.23,9.27-158.69-79.46-63.61-298.17-33.66-435.82,15.77-92.89,33.35-132.38,69.65-168,61.74-63.2-14.05,33.79-134.7-51.17-195.14-65.65-46.71-223.61-45.83-275.27-6.62-79.37,60.26,132.06,180.8,28.25,288.54-37.39,38.79-73.42,32.11-140.8,82.54C55.12-194.46,22.67-56.62,83.4-38.18c75.82,23,270.12-148.2,352.46-126C483.23-151.41,471-80.7,436.3,4.92Z"/><text class="cls-8" transform="translate(421.64 395.29) scale(0.95 1)">W<tspan class="cls-9" x="222.99" y="0">EB </tspan><tspan class="cls-10"><tspan x="0" y="222.62" xml:space="preserve">     D</tspan><tspan class="cls-11" x="443.74" y="222.62">E</tspan><tspan class="cls-12" x="568.78" y="222.62">V</tspan><tspan x="709.22" y="222.62">.</tspan></tspan></text><path class="cls-13" d="M1787.88,134.81C1105.22,273.94,698.49,548.44,738.32,775.74,746.6,823,781.51,909.91,953,1009.39c251.33,93.76,395,76.52,480.85,40.19,179.07-75.78,123.34-241.65,342.77-377,163.44-100.84,261-50,401.94-164.82,88.46-72.11,200-214.42,138.65-309.31C2257.1,105.45,2034.42,63.07,1787.88,134.81Z"/><ellipse class="cls-14" cx="1212.85" cy="443.55" rx="314.47" ry="314.27" transform="translate(755.93 1651.42) rotate(-89.37)"/><ellipse class="cls-15" cx="224.83" cy="456.18" rx="6.17" ry="5.82"/><ellipse class="cls-16" cx="841.17" cy="202.38" rx="7.83" ry="7.62"/><ellipse class="cls-15" cx="1671.33" cy="906.21" rx="8.67" ry="8.79"/><ellipse class="cls-17" cx="1673" cy="260.09" rx="9" ry="8.91"/><path class="cls-17" d="M317.79,857h-6.24v-6.25a2.21,2.21,0,0,0-4.42,0V857H300.9a2.21,2.21,0,1,0,0,4.42h6.23v6.25a2.21,2.21,0,0,0,4.42,0v-6.25h6.24a2.21,2.21,0,0,0,0-4.42Z"/><path class="cls-17" d="M1319.71,573.44l-48.77-33.05c-1.14-.77-2.5-1-3-.5h0c-.52.49,0,1.53,1.13,2.31l48.76,33c1.14.77,2.5,1,3,.5h0C1321.35,575.25,1320.85,574.21,1319.71,573.44Z"/><path class="cls-17" d="M283.6,174.17l-48.92-32.84c-1.14-.77-2.54-1-3.09-.4h0c-.56.55-.08,1.62,1.06,2.39l48.91,32.84c1.15.77,2.54,1,3.1.4h0C285.22,176,284.74,174.94,283.6,174.17Z"/><rect class="cls-17" x="1540" y="999.22" width="68" height="2.78" rx="0.39"/><path class="cls-18" d="M185.84,505.57c6.59-.3,6.92,6.78,13.52,6.48s6.27-7.39,12.87-7.69,6.93,6.78,13.52,6.48,6.28-7.39,12.88-7.7,6.93,6.79,13.53,6.48"/><path class="cls-18" d="M700.94,737.85c-4.84-2.81,0-11.21-4.79-14s-9.72,5.59-14.56,2.78,0-11.21-4.8-14-9.72,5.59-14.56,2.78"/><path class="cls-18" d="M1553.93,51.74c4.35,2.19,0,10.87,4.33,13.06s8.72-6.48,13.07-4.29,0,10.87,4.33,13.07,8.72-6.48,13.08-4.29,0,10.87,4.33,13.07"/><path class="cls-19" d="M832.72,83.73c5.24-.47,6.12,9.2,11.36,8.73s4.36-10.16,9.6-10.64S859.8,91,865,90.55s4.37-10.16,9.61-10.64,6.13,9.2,11.37,8.73"/><path class="cls-17" d="M1767.91,680.76H1762v-6.41a2.1,2.1,0,1,0-4.19,0v6.41h-5.91a2.28,2.28,0,0,0,0,4.55h5.91v6.42a2.1,2.1,0,1,0,4.19,0v-6.42h5.91a2.28,2.28,0,0,0,0-4.55Z"/><path class="cls-17" d="M913.84,438.2h-6.11V432a2.16,2.16,0,1,0-4.32,0v6.25h-6.1a2.21,2.21,0,0,0,0,4.42h6.1v6.25a2.16,2.16,0,1,0,4.32,0v-6.25h6.11a2.21,2.21,0,0,0,0-4.42Z"/><path class="cls-17" d="M1444.66,319.8h-6.59v-6.25a2.34,2.34,0,0,0-4.67,0v6.25h-6.59a2.21,2.21,0,1,0,0,4.42h6.59v6.25a2.34,2.34,0,0,0,4.67,0v-6.25h6.59a2.21,2.21,0,1,0,0-4.42Z"/><path class="cls-18" d="M388.72,969.21c4.84-.59,6,9,10.86,8.45s3.65-10.24,8.48-10.84,6,9,10.87,8.45,3.64-10.24,8.48-10.84,6,9.05,10.87,8.45"/></g></svg>